<svg xmlns="http://www.w3.org/2000/svg" viewBox="0 0 24 24"><path fill="#EB5424" d="M21.98 7.448 19.62 5.082a1.65 1.65 0 0 0-2.328 0L15.37 7.004a1.645 1.645 0 0 0 0 2.327l.947.946a.825.825 0 0 1 0 1.164l-3.285 3.285a.825.825 0 0 1-1.164 0l-.947-.946a1.645 1.645 0 0 0-2.327 0L6.67 15.704a1.645 1.645 0 0 0 0 2.327l2.366 2.366a3.293 3.293 0 0 0 4.655 0L21.98 12.1a3.29 3.29 0 0 0 0-4.655z"/><path fill="#EB5424" d="M10.032 5.13 7.663 2.761a1.645 1.645 0 0 0-2.327 0L2 6.097a3.293 3.293 0 0 0 0 4.656l2.369 2.367a1.645 1.645 0 0 0 2.327 0l2.367-2.367a1.645 1.645 0 0 0 0-2.327l-.947-.947a.825.825 0 0 1 0-1.164l1.918-1.919a1.648 1.648 0 0 0 0-1.267z"/></svg>
